<?xml version="1.0" encoding="UTF-8"?>
<svg xmlns="http://www.w3.org/2000/svg" viewBox="0 0 140.80191 141.66515">
  <g transform="translate(-116.19234,-84.833324)">
    <g transform="matrix(0.8237663,0,0,0.82890338,14.984505,23.661332)">
      <g transform="matrix(0.93225343,0,0,0.94271695,5.7602422,7.9949392)">
        <g transform="matrix(5.3183218,0,0,5.2942393,-406.14999,-676.3914)" fill="#628395">
          <path d="m 119.99519,143.36164 v 3.0176 c 4.27231,1.0236 7.63178,4.28308 8.74817,8.44771 h 3.02997 c -1.23092,-5.78439 -5.89891,-10.33159 -11.77814,-11.46531 z m -5.94688,0.041 c -5.78225,1.19884 -10.35522,5.70737 -11.57148,11.42437 h 3.03203 c 1.09831,-4.09735 4.36555,-7.31911 8.53945,-8.39653 z m -11.6136,17.29365 c 1.14894,5.81464 5.76198,10.41739 11.6136,11.63062 v -3.02784 c -4.24376,-1.09545 -7.55041,-4.40741 -8.59285,-8.60278 z m 26.35987,0 c -1.05953,4.26273 -4.45701,7.61358 -8.79939,8.65396 v 3.01773 c 5.94901,-1.14718 10.65806,-5.78921 11.82066,-11.67169 z"/>
          <path d="m 118.59434,174.93017 h -2.93812 v -33.84069 h 2.93812 z"/>
          <path d="m 100.13319,159.31511 v -2.90063 h 34.27799 v 2.90063 z"/>
        </g>
      </g>
    </g>
  </g>
</svg>
